**ABCDEFGHIJKLMNOPQRSTUVWXYZabcdefghijklmnopqrstuvwxyz**************************
**PARASOLID !"#$%&'()*+,-./:;<=>?@[\]^_`{|}~0123456789**************************
**PART1;
MC=unknown;
MC_MODEL=unknown;
MC_ID=unknown;
OS=unknown;
OS_RELEASE=unknown;
FRU=sdl_parasolid_customer_support;
APPL=parasolid_acceptance_tests;
SITE=unknown;
USER=unknown;
FORMAT=text;
GUISE=transmit;
KEY=/users/creanj/.julia/v0.6/PumiInterface/test/meshes/UnitSquareCurve/UnitSquareCurve_quadratic_nat.x_t;
FILE=/users/creanj/.julia/v0.6/PumiInterface/test/meshes/UnitSquareCurve/UnitSquareCurve_quadratic_nat.x_t;
DATE=unknown;
**PART2;
SCH=SCH_2900122_28101;
USFLD_SIZE=1;
**PART3;
**END_OF_HEADER*****************************************************************
T51 : TRANSMIT FILE created by modeller version 290012223 SCH_2900122_28101_1300
6203 1 12 33 CCCCCCI4 mesh1006 0 I8 polyline1008 0 CCCCCCCDI5 owner1040 0 CCCCCC
I13 boundary_mesh1006 0 I17 boundary_polyline1008 0 CCCA16 index_map_offset0 0 1
 dA9 index_map82 0 A17 node_id_index_map82 0 A20 schema_embedding_map82 0 A5 chi
ld12 0 A14 lowest_node_id0 0 1 dZ1 55 0 2 0 0 0 0 0 0 1e3 1e-8 0 0 0 1 0 3 1 3 4
 5 6 0 0 7 8 9 0 0 0 0 0 0 0 70 11 CI9 list_type0 0 1 uI10 notransmit0 0 1 lCCCD
CCDI12 finger_index0 0 1 dI12 finger_block1012 0 CZ2 0 4 T1 0 0 2 20 1 10 10 0 1
3 255 3 29 0 1 0 11 0 0 7 11 0 50 255 4 2 0 11 0 0 0 +-.9375 .5 0 0 0 1 1 0 0 0
 30 255 5 14 0 8 12 0 0 +0 1 0 -1 0 0 0 29 255 6 27 0 9 13 0 0 1 0 0 19 8 CCCCCC
CA5 owner12 0 Z7 28 0 1 0 0 3 V0 0 16 255 8 13 0 ?14 0 15 5 0 0 1 0 18 255 9 25
 0 16 0 17 6 ?1 0 17 255 16 0 0 0 0 9 18 19 0 14 -0 18 17 22 0 20 9 21 13 ?1 0 1
7 20 0 22 14 23 17 24 15 0 25 +0 18 21 19 0 23 17 26 27 ?1 0 29 13 24 0 17 27 6
 1 1 0 0 29 27 21 0 21 28 13 1 0 0 0 29 28 18 0 26 0 27 0 0 0 0 18 26 16 0 18 21
 0 28 ?1 0 17 18 0 22 23 14 26 16 19 0 29 +0 15 255 22 3 0 18 11 0 0 17 23 0 22
 20 18 21 29 30 0 24 +0 17 14 0 22 18 20 9 25 8 0 0 +0 16 19 4 0 ?18 30 0 31 0 0
 1 0 17 29 0 0 0 0 26 23 30 0 0 -0 16 30 7 0 ?23 15 19 32 0 0 1 0 16 15 10 0 ?20
 8 30 12 0 0 1 0 30 32 8 0 30 31 12 0 +0 0 0 1 0 0 0 31 255 31 5 0 19 0 32 0 +-.
9375 .5 0 0 0 -1 1 0 0 1.0625 0 31 12 11 0 15 32 5 0 +1.9375 .5 0 0 0 -1 -1 0 0
 1.0625 0 17 25 0 0 0 0 17 14 8 0 0 -0 17 24 0 0 0 0 21 20 15 0 0 -0 14 255 11 1
 33 ?0 0 22 3 4 +0 0 0 0 3 0 81 255 1 33 55 34 11 35 0 0 0 36 0 80 255 1 34 37 3
8 9000 1 1 1 1 1 1 1 1 0 FFFFTFTFFFFFFF1 0 81 1 35 46 39 11 0 33 0 0 40 0 82 255
 1 36 408748136 0 80 1 39 0 41 8001 0 0 0 0 3 5 0 0 0 FFFFTFTFFFFFFF2 0 83 255 3
 40 .792156862745098 .819607843137255 .933333333333333 0 79 255 15 41 SDL/TYSA_C
OLOUR0 79 14 38 SWEntUnchanged0 74 4 CI16 index_map_offset0 0 1 dCCZ20 10 2 0 0
 35 33 0 0 0 0 0 0 0 0 0 0 0 0 0 0 0 0 0 0 0 1 0 
