**ABCDEFGHIJKLMNOPQRSTUVWXYZabcdefghijklmnopqrstuvwxyz**************************
**PARASOLID !"#$%&'()*+,-./:;<=>?@[\]^_`{|}~0123456789**************************
**PART1;
MC=AMD64;
MC_MODEL=Intel64 Family 6 Model 78 Stepping 3, GenuineIntel;
MC_ID=unknown;
OS=Windows_NT;
OS_RELEASE=unknown;
FRU=Parasolid Version 27.0, build 199, 11-19-2014;
APPL=SOLIDWORKS 2015-2015063;
SITE=;
USER=unknown;
FORMAT=text;
GUISE=transmit;
KEY=corner20_split;
FILE=corner20_split.x_t;
DATE=Mon Jul 15 19:52:05 2019;
**PART2;
SCH=SCH_2700199_26105;
USFLD_SIZE=0;
**PART3;
**END_OF_HEADER*****************************************************************
T51 : TRANSMIT FILE created by modeller version 270019923 SCH_2700199_26105_1300
6196 0 12 30 CCCCCCCCCCCCCDI5 owner1040 0 CCCCCCCCCA13 boundary_mesh1006 0 A16 i
ndex_map_offset0 0 1 dA9 index_map82 0 A17 node_id_index_map82 0 A20 schema_embe
dding_map82 0 A5 child12 0 A14 lowest_node_id0 0 1 dZ1 98 0 2 0 0 0 0 1e3 1e-8 0
 3 0 1 0 3 1 4 5 6 7 8 9 10 0 0 0 0 0 0 0 70 11 CI9 list_type0 0 1 uI10 notransm
it0 0 1 lCCCDCCDI12 finger_index0 0 1 dI12 finger_block1012 0 CZ2 0 4 T1 0 0 2 2
0 1 11 11 13 255 4 35 0 1 0 12 0 0 8 12 50 255 5 2 0 13 0 0 0 +0 0 0 0 0 1 1 0 0
 30 255 6 65 0 9 14 0 0 +-.5 0 0 0 1 0 29 255 7 62 0 10 15 0 -.5 1.5 0 19 8 CCCC
CCCA5 owner12 0 Z8 34 0 1 0 0 4 V0 16 255 9 63 0 ?16 0 17 6 0 0 1 18 255 10 59 0
 16 0 18 7 ?1 17 255 16 0 19 20 21 10 22 9 0 23 +18 18 55 0 22 10 24 15 ?1 17 22
 0 25 26 27 18 16 9 0 28 -18 24 31 0 29 18 30 31 ?1 29 15 58 0 18 31 7 -.5 .1819
85117133098 0 29 31 33 0 24 32 15 -1.5 -503188208629253e-30 0 29 32 30 0 30 33 3
1 -1.5 1.5 0 18 30 28 0 20 24 34 32 ?1 29 33 27 0 34 35 32 0 1.5 0 18 34 25 0 36
 30 37 33 ?1 29 35 24 0 37 38 33 0 .3639702342661955 0 18 37 22 0 26 34 39 35 ?1
 29 38 21 0 39 0 35 -1 0 0 18 39 19 0 40 37 0 38 ?1 17 40 0 19 21 41 39 29 42 0
 43 +15 255 19 3 0 21 12 0 17 21 0 19 16 40 18 43 44 0 0 +17 41 0 19 40 20 24 45
 17 0 0 +17 29 0 0 0 0 24 40 42 0 41 -16 42 4 0 ?40 46 0 47 0 0 1 17 43 0 0 0 0
 39 21 44 0 0 -16 44 7 0 ?21 48 46 49 46 46 1 16 48 10 0 ?36 50 44 51 0 0 1 16 4
6 56 0 ?26 44 42 49 44 44 1 30 49 8 0 44 47 51 0 +-1 0 0 .93969262078591 .342020
143325663 0 30 47 5 0 42 0 49 0 +-1.5 -503188208629253e-30 0 1 1006376417258508e
-30 0 30 51 11 0 48 49 52 0 +0 .3639702342661955 0 0 1 0 30 52 14 0 53 51 14 0 +
0 1.5 0 -1 -1480297366166874e-31 0 16 53 13 0 ?27 17 50 52 50 50 1 30 14 17 0 17
 52 6 0 +-1.5 1.5 0 296059473233375e-30 -1 0 16 17 16 0 ?41 9 53 14 0 0 1 17 27
 0 25 22 36 10 54 53 0 0 +16 50 60 0 ?20 53 48 52 53 53 1 17 20 0 19 41 16 30 23
 50 0 45 +17 23 0 0 0 0 10 20 50 0 27 -17 45 0 0 0 0 30 41 17 0 0 -15 25 64 0 22
 13 0 17 36 0 25 27 26 34 55 48 0 54 +17 54 0 0 0 0 34 27 53 0 0 -17 26 0 25 36
 22 37 28 46 0 55 +17 55 0 0 0 0 37 36 48 0 0 -17 28 0 0 0 0 18 26 46 0 21 -14 2
55 13 1 56 ?0 12 25 4 5 +12 12 0 12 4 81 255 1 56 97 57 13 58 0 0 59 60 14 12 66
 59 ?13 0 19 4 5 +13 13 13 0 4 81 1 59 98 57 12 61 0 56 0 62 80 255 1 57 63 64 9
000 1 1 1 1 1 1 1 1 0 FFFFTFTFFFFFFF1 81 1 61 82 65 12 0 59 0 58 66 82 255 1 62
 453771382 80 1 65 0 67 8001 0 0 0 0 3 5 0 0 0 FFFFTFTFFFFFFF2 81 1 58 83 65 13
 0 56 61 0 68 83 255 3 66 .792156862745098 .819607843137255 .933333333333333 83
 3 68 .792156862745098 .819607843137255 .933333333333333 79 255 15 67 SDL/TYSA_C
OLOUR79 14 64 SWEntUnchanged82 1 60 -47447946 74 4 CI16 index_map_offset0 0 1 dC
CZ20 11 2 0 0 59 58 0 0 0 0 0 0 0 0 0 0 0 0 0 0 0 0 0 0 1 0 
